<svg width="99" height="99" viewBox="0 0 99 99" fill="none" xmlns="http://www.w3.org/2000/svg">
<path d="M69.2451 69.2451H89.0294V9.89215H9.89215V69.2451H29.6765C29.6765 74.6858 34.1279 79.1372 39.5686 79.1372H59.3529C61.9765 79.1372 64.4926 78.095 66.3477 76.2399C68.2029 74.3847 69.2451 71.8686 69.2451 69.2451ZM0 9.89215C0 4.45147 4.45147 0 9.89215 0H89.0294C91.6529 0 94.169 1.04221 96.0242 2.89734C97.8793 4.75248 98.9215 7.26859 98.9215 9.89215V89.0294C98.9215 91.6529 97.8793 94.169 96.0242 96.0242C94.169 97.8793 91.6529 98.9215 89.0294 98.9215H9.89215C7.26859 98.9215 4.75248 97.8793 2.89734 96.0242C1.04221 94.169 0 91.6529 0 89.0294V9.89215ZM19.7843 19.7843H79.1372V29.6765H19.7843V19.7843ZM19.7843 34.6225H79.1372V44.5147H19.7843V34.6225ZM19.7843 49.4608H79.1372V59.3529H19.7843V49.4608Z" fill="#4B7AF5"/>
</svg>
