<svg width="354" height="200" viewBox="0 0 354 200" fill="none" xmlns="http://www.w3.org/2000/svg">
<g filter="url(#filter0_b_1616_2272)">
<path d="M334.988 158.66C344.245 145.879 350.346 131.089 352.792 115.498C355.238 99.9081 353.959 83.9603 349.06 68.9588C344.162 53.9573 335.782 40.3281 324.607 29.1856C313.432 18.0431 299.778 9.70369 284.762 4.84911C269.746 -0.00546646 253.795 -1.23733 238.212 1.25424C222.629 3.74581 207.856 9.89007 195.103 19.1847C182.349 28.4793 171.977 40.6603 164.833 54.7318C157.689 68.8033 153.977 84.3658 154 100.147L189 100.095C188.985 89.8377 191.398 79.7221 196.041 70.5757C200.685 61.4292 207.427 53.5115 215.717 47.47C224.007 41.4286 233.609 37.4348 243.738 35.8153C253.867 34.1957 264.235 34.9965 273.995 38.1519C283.756 41.3074 292.631 46.7281 299.894 53.9707C307.158 61.2133 312.605 70.0722 315.789 79.8232C318.973 89.5742 319.804 99.9403 318.215 110.074C316.625 120.208 312.659 129.821 306.642 138.129L334.988 158.66Z" fill="#828282"/>
<path d="M254 75C267.807 75 279 86.1929 279 100C279 113.807 267.807 125 254 125C240.193 125 229 113.807 229 100C229 86.1929 240.193 75 254 75Z" fill="#828282"/>
<path d="M200 100C200 115.781 196.265 131.338 189.101 145.399C181.936 159.46 171.546 171.626 158.779 180.902C146.011 190.178 131.23 196.3 115.643 198.769C100.057 201.238 84.107 199.982 69.0983 195.106C54.0896 190.229 40.4482 181.87 29.2893 170.711C18.1304 159.552 9.77096 145.91 4.89435 130.902C0.0177469 115.893 -1.23752 99.9433 1.23118 84.3565C3.69988 68.7698 9.82246 53.9886 19.0983 41.2215L47.4139 61.794C41.3846 70.0926 37.4049 79.7004 35.8003 89.8318C34.1956 99.9631 35.0115 110.33 38.1813 120.086C41.3511 129.842 46.7848 138.709 54.0381 145.962C61.2913 153.215 70.1583 158.649 79.9139 161.819C89.6695 164.988 100.037 165.804 110.168 164.2C120.3 162.595 129.907 158.615 138.206 152.586C146.505 146.557 153.259 138.649 157.915 129.509C162.572 120.37 165 110.258 165 100H200Z" fill="#828282"/>
<path d="M100 75C113.807 75 125 86.1929 125 100C125 113.807 113.807 125 100 125C86.1929 125 75 113.807 75 100C75 86.1929 86.1929 75 100 75Z" fill="#828282"/>
</g>
<defs>
<filter id="filter0_b_1616_2272" x="-40" y="-40" width="434" height="280" filterUnits="userSpaceOnUse" color-interpolation-filters="sRGB">
<feFlood flood-opacity="0" result="BackgroundImageFix"/>
<feGaussianBlur in="BackgroundImageFix" stdDeviation="20"/>
<feComposite in2="SourceAlpha" operator="in" result="effect1_backgroundBlur_1616_2272"/>
<feBlend mode="normal" in="SourceGraphic" in2="effect1_backgroundBlur_1616_2272" result="shape"/>
</filter>
</defs>
</svg>
